<?xml version="1.0" encoding="UTF-8" standalone="no"?>
<svg width="613" height="145" xmlns="http://www.w3.org/2000/svg">
    <g>
        <path d="M160 72.07c1.73 8.19 1.73 9.05 1.73 10.13 0 14-15.74 21.77-36.43 21.77-46.76.03-87.72-27.37-87.72-45.48a18.45 18.45 0 0 1 1.51-7.33l3.66-9.06a6.43 6.43 0 0 0-.22 1.9c0 9.22 36.3 39.45 84.94 39.45 12.51 0 30.61-2.58 30.61-17.46a14 14 0 0 0-.31-3.42l2.23 9.5zM579.74 92.8c0 11.89 7.15 17.67 20.19 17.67a52.11 52.11 0 0 0 11.89-1.68V95a24.84 24.84 0 0 1-7.68 1.16c-5.37 0-7.36-1.68-7.36-6.73V68.3h15.56V54.1h-15.56v-18l-17 3.68V54.1h-11.29v14.2h11.25v24.5zm-53 .32c0-3.68 3.69-5.47 9.26-5.47a43.12 43.12 0 0 1 10.1 1.26v7.15a21.51 21.51 0 0 1-10.63 2.63c-5.46 0-8.73-2.1-8.73-5.57zm5.2 17.56c6 0 10.84-1.26 15.36-4.31v3.37h16.82V74.08c0-13.56-9.14-21-24.39-21-8.52 0-16.94 2-26 6.1l6.1 12.52c6.52-2.74 12-4.42 16.83-4.42 7 0 10.62 2.73 10.62 8.31v2.73a49.53 49.53 0 0 0-12.62-1.58c-14.31 0-22.93 6-22.93 16.73 0 9.78 7.78 17.24 20.19 17.24l.02-.03zm-92.46-.91h18.09V80.92h30.29v28.82H506V36.12h-18.07v28.29h-30.29V36.12h-18.09l-.07 73.65zm-68.86-27.9c0-8 6.31-14.1 14.62-14.1A17.22 17.22 0 0 1 397 72.09v19.45A16.36 16.36 0 0 1 385.24 96c-8.2 0-14.62-6.1-14.62-14.09v-.04zm26.61 27.91h16.83V32.44l-17 3.68v20.93a28.3 28.3 0 0 0-14.2-3.68c-16.19 0-28.92 12.51-28.92 28.5a28.25 28.25 0 0 0 28.4 28.6 25.12 25.12 0 0 0 14.93-4.83l-.04 4.14zM320 67c5.36 0 9.88 3.47 11.67 8.83h-23.2C310.15 70.3 314.36 67 320 67zm-28.67 15c0 16.2 13.25 28.82 30.28 28.82 9.36 0 16.2-2.53 23.25-8.42l-11.26-10c-2.63 2.74-6.52 4.21-11.14 4.21a14.39 14.39 0 0 1-13.68-8.83h39.65v-4.23c0-17.67-11.88-30.39-28.08-30.39a28.57 28.57 0 0 0-29 28.81l-.02.03zM262 51.58c6 0 9.36 3.78 9.36 8.31 0 4.53-3.36 8.31-9.36 8.31h-17.89V51.58H262zm-36 58.16h18.09V82.92h13.77l13.89 26.82H292l-16.2-29.45a22.27 22.27 0 0 0 13.88-20.72c0-13.25-10.41-23.45-26-23.45H226v73.62z"
              fill="#FFF"/>
        <path d="M127.47 83.49c12.51 0 30.61-2.58 30.61-17.46a14 14 0 0 0-.31-3.42l-7.45-32.36c-1.72-7.12-3.23-10.35-15.73-16.6C124.89 8.69 103.76.5 97.51.5 91.69.5 90 8 83.06 8c-6.68 0-11.64-5.6-17.89-5.6-6 0-9.91 4.09-12.93 12.5 0 0-8.41 23.72-9.49 27.16a6.43 6.43 0 0 0-.22 1.94c0 9.22 36.3 39.45 84.94 39.45M160 72.07c1.73 8.19 1.73 9.05 1.73 10.13 0 14-15.74 21.77-36.43 21.77-46.76.03-87.72-27.37-87.72-45.48a18.45 18.45 0 0 1 1.51-7.33C22.27 52 .5 55 .5 74.22c0 31.48 74.59 70.28 133.65 70.28 45.28 0 56.7-20.48 56.7-36.65 0-12.72-11-27.16-30.83-35.78"
              fill="#E00"/>
        <path stroke="black" fill="#000" stroke-width="1"
          d="M160, 72.07L160.57, 74.81L161, 76.96L161.31, 78.59L161.51, 79.8L161.64, 80.68L161.7, 81.31L161.73, 82.2L161.55, 84.75L161.01, 87.15L160.14, 89.41L158.95, 91.51L157.45, 93.45L155.66, 95.24L153.6, 96.87L151.27, 98.33L148.71, 99.64L145.92, 100.77L142.92, 101.74L139.72, 102.54L136.34, 103.16L132.81, 103.61L129.12, 103.88L125.3, 103.97L116.61, 103.66L108.11, 102.77L99.84, 101.34L91.87, 99.42L84.23, 97.08L77, 94.37L70.2, 91.33L63.91, 88.03L58.16, 84.52L53.01, 80.85L48.51, 77.07L44.71, 73.24L41.67, 69.41L40.45, 67.52L39.43, 65.65L38.63, 63.8L38.05, 61.99L37.7, 60.21L37.58, 58.49L37.96, 54.75L39.09, 51.16L42.75, 42.1L42.53, 44L42.64, 44.92L42.95, 45.96L43.47, 47.1L44.18, 48.34L45.1, 49.67L46.2, 51.06L48.96, 54.05L52.43, 57.24L56.58, 60.53L61.37, 63.87L66.76, 67.18L72.72, 70.38L79.22, 73.4L86.22, 76.16L93.68, 78.58L101.57, 80.6L109.86, 82.13L118.5, 83.11L127.47, 83.45L132.38, 83.31L137.53, 82.81L142.65, 81.85L145.12, 81.15L147.47, 80.3L149.67, 79.27L151.69, 78.05L153.5, 76.63L155.06, 75L156.33, 73.13L157.28, 71.01L157.87, 68.64L158.08, 65.99L158.03, 64.27L157.77, 62.57L160, 72.07"/>
    </g>
</svg>
